<svg viewBox="0 0 68 20" fill="none" xmlns="http://www.w3.org/2000/svg">
<path d="M2.41525 19.1684V19.1682L2.4039 19.1687C1.51481 19.2091 0.767998 18.4804 0.723572 17.5656V17.5241V2.36954C0.723572 1.46573 1.46409 0.72522 2.36789 0.72522H2.41525H65.354C66.2659 0.72522 67.0457 1.47366 67.0457 2.36954V17.5183C67.0015 18.4268 66.2577 19.1684 65.3067 19.1684H2.41525Z" fill="black" stroke="white" stroke-width="0.5"/>
<path d="M15.1072 9.85215C15.1072 8.24198 16.4332 7.48425 16.4805 7.43689C15.9596 6.63181 15.0598 6.15823 14.1126 6.15823C13.1655 6.06351 12.171 6.72652 11.6974 6.72652C11.1764 6.72652 10.4187 6.15823 9.56628 6.15823C8.47704 6.15823 7.48253 6.77388 6.96159 7.7684C5.825 9.71007 6.67744 12.5989 7.76667 14.1617C8.28761 14.9195 8.95062 15.7719 9.75571 15.7719C10.5608 15.7245 10.8923 15.251 11.8395 15.251C12.834 15.251 13.1181 15.7719 13.9232 15.7245C14.7757 15.7245 15.344 14.9668 15.8649 14.1617C16.4805 13.2619 16.7647 12.4095 16.7647 12.3621C16.7647 12.3621 15.1072 11.7465 15.1072 9.85215ZM13.497 5.11635C13.9706 4.54805 14.2074 3.83768 14.16 3.07996C13.5443 3.12731 12.7393 3.50618 12.2657 4.02712C11.8395 4.5007 11.508 5.25842 11.6027 5.96879C12.313 6.06351 13.0234 5.63729 13.497 5.11635Z" fill="white"/>
<path d="M26.8519 15.677H25.7153L25.0997 13.7354H22.9212L22.3055 15.677H21.2163L23.3948 9.04692H24.7208L26.8519 15.677ZM24.9102 12.8829L24.3419 11.178L24.0104 9.94672L23.6789 11.178L23.1106 12.8829H24.9102ZM32.3928 13.2144C32.4402 13.9248 32.2034 14.6352 31.7298 15.1561C31.3509 15.5823 30.83 15.7718 30.2617 15.7718C29.646 15.7718 29.1725 15.535 28.8883 15.1087V17.6187H27.7991V12.4567L27.7517 10.8939H28.6989L28.7462 11.6516C29.0777 11.0833 29.6934 10.7518 30.3564 10.7992C30.9247 10.7992 31.3983 11.036 31.7771 11.4622C32.2034 11.9358 32.4402 12.5514 32.3928 13.2144ZM31.3036 13.2618C31.3036 12.7882 31.2088 12.4093 30.9721 12.1252C30.7353 11.7937 30.4511 11.6516 30.0249 11.6516C29.7407 11.6516 29.504 11.7463 29.3145 11.8884C29.0777 12.0778 28.983 12.2673 28.8883 12.5514L28.8409 12.8829V13.688C28.8409 14.0195 28.9357 14.3037 29.1725 14.5878C29.4092 14.8246 29.646 14.9667 30.0249 14.9667C30.4038 14.9667 30.7353 14.8246 30.9721 14.4931C31.2088 14.1142 31.3036 13.688 31.3036 13.2618ZM37.8863 13.2144C37.9337 13.9248 37.6969 14.6352 37.2233 15.1561C36.8444 15.5823 36.3235 15.7718 35.7552 15.7718C35.1396 15.7718 34.666 15.535 34.3818 15.1087V17.6187H33.2926V12.4567L33.2452 10.8939H34.1924L34.2871 11.6516C34.6186 11.0833 35.2343 10.7518 35.8973 10.7992C36.4656 10.7992 36.9392 11.036 37.318 11.4622C37.6969 11.8884 37.8863 12.5041 37.8863 13.2144ZM36.7971 13.2618C36.7971 12.7882 36.7024 12.4093 36.4656 12.1252C36.2288 11.7937 35.9446 11.6516 35.5184 11.6516C35.2343 11.6516 34.9975 11.7463 34.8081 11.8884C34.5713 12.0778 34.4765 12.2673 34.3818 12.5514L34.3345 12.8829V13.688C34.3345 14.0195 34.4292 14.3037 34.666 14.5878C34.9028 14.8246 35.1396 14.9667 35.5184 14.9667C35.8973 14.9667 36.2288 14.8246 36.4656 14.4931C36.7024 14.1616 36.7971 13.7827 36.7971 13.2618ZM44.0902 13.7827C44.0902 14.351 43.9008 14.8246 43.5219 15.1561C43.0957 15.535 42.48 15.7244 41.7223 15.7244C41.0119 15.7244 40.4437 15.5823 40.0174 15.2982L40.2542 14.3984C40.7278 14.6825 41.2487 14.8246 41.817 14.8246C42.1959 14.8246 42.5274 14.7299 42.7642 14.5404C43.001 14.351 43.0957 14.1142 43.0957 13.8301C43.0957 13.5459 43.001 13.3565 42.8116 13.1671C42.6221 12.9776 42.338 12.8356 41.9118 12.6461C40.7278 12.2199 40.1595 11.6043 40.1595 10.7518C40.1595 10.2309 40.3489 9.75729 40.7752 9.42578C41.2014 9.09428 41.7223 8.90485 42.3853 8.90485C43.001 8.90485 43.4746 8.99956 43.9008 9.23635L43.6166 10.0888C43.2378 9.89936 42.7642 9.80465 42.338 9.80465C41.9591 9.80465 41.675 9.89936 41.4382 10.0888C41.2487 10.2309 41.154 10.4677 41.154 10.7045C41.154 10.9886 41.2487 11.178 41.4382 11.3675L42.3853 11.8884C42.8589 12.0778 43.2851 12.3146 43.664 12.6935C43.9481 12.9776 44.0902 13.3565 44.0902 13.7827ZM47.5947 11.699H46.4108V14.0195C46.4108 14.5878 46.6002 14.9193 47.0264 14.9193L47.5 14.872L47.5474 15.677C47.3579 15.7718 47.0738 15.7718 46.6949 15.7718C46.2687 15.7718 45.9372 15.6297 45.7004 15.3929C45.4636 15.1561 45.3215 14.7299 45.3215 14.1142V11.699H44.7059V10.8939H45.4162V10.0414L46.4581 9.70993V10.8939H47.6421V11.699H47.5947ZM52.8988 13.2144C52.8988 13.9248 52.7094 14.5404 52.2832 15.014C51.8569 15.4876 51.2413 15.7244 50.5309 15.7244C49.8205 15.7244 49.2522 15.4876 48.826 15.014C48.3998 14.5404 48.2104 13.9722 48.2104 13.2618C48.2104 12.5041 48.4472 11.9358 48.8734 11.4622C49.2996 10.9886 49.8679 10.7518 50.6256 10.7518C51.336 10.7518 51.9043 10.9886 52.3305 11.4622C52.7094 11.9358 52.8988 12.5041 52.8988 13.2144ZM51.8096 13.2618C51.8096 12.8356 51.7149 12.4567 51.5254 12.1252C51.2886 11.7463 51.0045 11.5569 50.5783 11.5569C50.152 11.5569 49.8205 11.7463 49.5837 12.1252C49.3943 12.4567 49.2996 12.8356 49.2996 13.2618C49.2996 13.688 49.3943 14.0669 49.5837 14.3984C49.8205 14.7772 50.152 14.9667 50.5309 14.9667C50.9571 14.9667 51.2413 14.7772 51.4781 14.3984C51.7149 14.1142 51.8096 13.688 51.8096 13.2618ZM56.4033 11.841L56.0718 11.7937C55.7403 11.7937 55.4088 11.9358 55.2193 12.2199C55.0299 12.4567 54.9352 12.7882 54.9352 13.1671V15.677H53.846V12.4093L53.7986 10.8939H54.7458L54.7931 11.7937H54.8405C54.9352 11.5095 55.1246 11.2254 55.3614 11.036C55.5982 10.8465 55.835 10.7992 56.1191 10.7992H56.4033V11.841ZM61.1864 13.0723L61.1391 13.5459H57.9188C57.9188 13.9722 58.0608 14.351 58.3923 14.6352C58.6765 14.872 59.008 14.9667 59.4342 14.9667C59.9078 14.9667 60.334 14.872 60.7129 14.7299L60.9023 15.4876C60.3814 15.677 59.8604 15.7718 59.2921 15.7718C58.6291 15.8191 58.0135 15.5823 57.5399 15.1087C57.1137 14.6352 56.8769 14.0195 56.9242 13.3565C56.9242 12.6461 57.1137 12.0305 57.5399 11.5569C57.9187 11.036 58.5344 10.7992 59.1974 10.7992C59.9078 10.7992 60.4287 11.036 60.7602 11.5569C61.0444 11.9358 61.1864 12.4567 61.1864 13.0723ZM60.1446 12.7882C60.1446 12.5041 60.0972 12.2199 59.9551 11.9831C59.7657 11.699 59.4342 11.5569 59.1027 11.5569C58.7712 11.5569 58.487 11.699 58.2503 11.9831C58.0608 12.2199 57.9661 12.5041 57.9188 12.7882H60.1446Z" fill="white"/>
<path d="M24.5789 4.97417C24.5789 5.54247 24.3894 6.01605 24.0579 6.3002C23.7264 6.58435 23.2528 6.72642 22.6372 6.72642L21.8795 6.67906V3.45872L22.7793 3.41136C23.3476 3.41136 23.7738 3.55343 24.0579 3.79022C24.4368 4.07437 24.5789 4.45324 24.5789 4.97417ZM24.0106 4.97417C24.0106 4.59531 23.9158 4.31116 23.7264 4.12173C23.537 3.9323 23.2055 3.83758 22.8266 3.83758L22.4004 3.88494V6.3002H22.7793C23.1581 6.3002 23.4896 6.20548 23.7264 5.96869C23.9158 5.7319 24.0106 5.4004 24.0106 4.97417ZM27.5151 5.49511C27.5151 5.87398 27.4203 6.15812 27.1836 6.39491C26.9468 6.6317 26.6626 6.77378 26.3311 6.77378C25.9996 6.77378 25.7155 6.67906 25.526 6.44227C25.2892 6.15812 25.1945 5.87398 25.1945 5.54247C25.1945 5.16361 25.2892 4.87946 25.526 4.64267C25.7155 4.40588 25.9996 4.31116 26.3785 4.31116C26.71 4.31116 26.9941 4.40588 27.2309 4.64267C27.4203 4.8321 27.5151 5.11625 27.5151 5.49511ZM26.9468 5.49511C26.9468 5.25832 26.8994 5.11625 26.8047 4.92682C26.71 4.73738 26.5205 4.64267 26.3311 4.64267C26.1417 4.64267 25.9522 4.73738 25.8575 4.92682L25.7155 5.49511C25.7155 5.7319 25.7628 5.87398 25.8575 6.06341C25.9522 6.25284 26.1417 6.34756 26.3311 6.34756C26.5205 6.34756 26.71 6.25284 26.8047 6.06341C26.8994 5.92133 26.9468 5.7319 26.9468 5.49511ZM31.4458 4.35852L30.688 6.67906H30.2145L29.9303 5.68454L29.7409 4.92682L29.5515 5.68454L29.2199 6.67906H28.7464L28.036 4.35852H28.5569L28.8411 5.49511L28.9832 6.25284L29.1726 5.49511L29.5041 4.35852H29.9303L30.2618 5.44775L30.4513 6.20548L30.5933 5.44775L30.8775 4.35852H31.4458ZM34.1452 6.67906H33.6242V5.35304C33.6242 4.92682 33.4822 4.73738 33.1507 4.73738C33.0086 4.73738 32.8665 4.78474 32.7718 4.92682C32.6771 5.02153 32.6297 5.16361 32.6297 5.30568V6.67906H32.1088V5.02153V4.35852H32.5824L32.6297 4.73738L32.9139 4.45324C33.0559 4.35852 33.198 4.31116 33.3874 4.31116C33.6242 4.31116 33.8137 4.35852 33.9557 4.50059C34.1452 4.69003 34.2399 4.92682 34.2399 5.25832V6.67906H34.1452ZM35.6133 6.67906H35.0923V3.26929H35.6133V6.67906ZM38.6915 5.49511C38.6915 5.87398 38.5968 6.15812 38.36 6.39491C38.1232 6.6317 37.8391 6.77378 37.5076 6.77378C37.1761 6.77378 36.8919 6.67906 36.7025 6.44227C36.5131 6.20548 36.371 5.92133 36.371 5.58983C36.371 5.21096 36.4657 4.92682 36.7025 4.69003C36.8919 4.45324 37.2234 4.35852 37.555 4.35852C37.8865 4.35852 38.1706 4.45324 38.4074 4.69003C38.5968 4.8321 38.6915 5.11625 38.6915 5.49511ZM38.1706 5.49511C38.1706 5.25832 38.1232 5.11625 38.0285 4.92682C37.9338 4.73738 37.7444 4.64267 37.555 4.64267C37.3655 4.64267 37.1761 4.73738 37.0814 4.92682C36.9867 5.06889 36.9393 5.25832 36.9393 5.49511C36.9393 5.7319 36.9867 5.87398 37.0814 6.06341C37.1761 6.25284 37.3655 6.34756 37.555 6.34756C37.7444 6.34756 37.9338 6.25284 38.0285 6.06341C38.1232 5.92133 38.1706 5.7319 38.1706 5.49511ZM41.2489 6.67906H40.7753L40.7279 6.39491C40.5859 6.6317 40.3491 6.72642 40.0176 6.72642C39.7808 6.72642 39.5913 6.67906 39.4966 6.53699C39.3546 6.39491 39.3072 6.25284 39.3072 6.06341C39.3072 5.77926 39.4493 5.54247 39.6861 5.4004C39.9702 5.21096 40.3491 5.16361 40.6806 5.16361V5.11625C40.6806 4.78474 40.5385 4.64267 40.207 4.64267C39.9702 4.64267 39.7808 4.69003 39.5913 4.8321L39.4966 4.50059C39.7334 4.35852 40.0176 4.31116 40.3017 4.31116C40.9174 4.31116 41.2489 4.64267 41.2489 5.25832V6.11077V6.67906ZM40.6806 5.87398V5.49511C40.1123 5.49511 39.8281 5.63719 39.8281 5.96869L39.9229 6.25284L40.207 6.34756L40.5385 6.25284L40.7279 5.96869L40.6806 5.87398ZM44.2324 6.67906H43.7588L43.7115 6.3002C43.5694 6.58435 43.3326 6.72642 42.9538 6.72642C42.6696 6.72642 42.4328 6.6317 42.2434 6.39491C42.054 6.15812 41.9592 5.87398 41.9592 5.54247C41.9592 5.16361 42.054 4.87946 42.2434 4.64267C42.4328 4.40588 42.6696 4.31116 42.9538 4.31116C43.2853 4.31116 43.4747 4.40588 43.6168 4.64267V3.26929H44.1377V6.06341L44.2324 6.67906ZM43.6641 5.68454V5.30568V5.16361L43.4747 4.8321C43.38 4.73738 43.2853 4.69003 43.1432 4.69003C42.9538 4.69003 42.8117 4.78474 42.6696 4.92682C42.5749 5.06889 42.4802 5.25832 42.4802 5.54247C42.4802 5.77926 42.5275 5.96869 42.6223 6.11077C42.717 6.25284 42.9064 6.34756 43.0958 6.34756C43.2853 6.34756 43.4273 6.3002 43.5221 6.15812C43.6168 6.01605 43.6641 5.87398 43.6641 5.68454ZM48.7314 5.49511C48.7314 5.87398 48.6367 6.15812 48.3999 6.39491C48.1631 6.6317 47.879 6.77378 47.5475 6.77378C47.216 6.77378 46.9318 6.67906 46.7424 6.44227C46.553 6.20548 46.4109 5.92133 46.4109 5.58983C46.4109 5.21096 46.5056 4.92682 46.7424 4.69003C46.9318 4.40588 47.216 4.31116 47.5948 4.31116C47.9263 4.31116 48.2105 4.40588 48.4473 4.64267C48.5894 4.8321 48.7314 5.11625 48.7314 5.49511ZM48.1631 5.49511C48.1631 5.25832 48.1158 5.11625 48.0211 4.92682C47.9264 4.73738 47.7369 4.64267 47.5475 4.64267C47.3581 4.64267 47.1686 4.73738 47.0739 4.92682C46.9792 5.06889 46.9318 5.25832 46.9318 5.49511C46.9318 5.7319 46.9792 5.87398 47.0739 6.06341C47.1686 6.25284 47.3581 6.34756 47.5475 6.34756C47.7369 6.34756 47.9264 6.25284 48.0211 6.06341C48.1158 5.92133 48.1631 5.7319 48.1631 5.49511ZM51.5256 6.67906H51.0046V5.35304C51.0046 4.92682 50.8625 4.73738 50.531 4.73738C50.389 4.73738 50.2469 4.78474 50.1522 4.92682C50.0575 5.02153 50.0101 5.16361 50.0101 5.30568V6.67906H49.4892V5.02153V4.35852H49.9627V4.69003L50.2469 4.40588C50.389 4.31116 50.531 4.2638 50.7205 4.2638C50.9573 4.2638 51.1467 4.31116 51.2888 4.45324C51.4782 4.64267 51.5729 4.87946 51.5729 5.21096L51.5256 6.67906ZM55.0774 4.73738H54.5091V5.87398C54.5091 6.15812 54.6038 6.3002 54.7933 6.3002L55.03 6.25284V6.6317L54.6038 6.67906C54.4144 6.67906 54.225 6.6317 54.1302 6.48963C54.0355 6.34756 53.9408 6.15812 53.9408 5.87398V4.73738H53.6093V4.35852H53.9408V3.88494L54.4618 3.74287V4.31116H55.03L55.0774 4.73738ZM57.8242 6.67906H57.3032V5.35304C57.3032 4.92682 57.1612 4.73738 56.8297 4.73738C56.5929 4.73738 56.4034 4.87946 56.3087 5.11625L56.2614 5.30568V6.72642H55.7404V3.26929H56.2614V4.69003C56.4034 4.45324 56.6402 4.31116 56.9717 4.31116C57.2085 4.31116 57.3506 4.35852 57.4927 4.50059C57.6821 4.69003 57.7768 4.92682 57.7768 5.30568L57.8242 6.67906ZM60.713 5.4004V5.63719H59.1502C59.1502 5.87398 59.2449 6.06341 59.387 6.15812C59.5291 6.25284 59.6711 6.3002 59.9079 6.3002L60.5236 6.20548L60.6183 6.58435C60.3815 6.67906 60.1447 6.72642 59.8132 6.72642C59.4343 6.72642 59.1502 6.6317 58.9608 6.39491C58.7713 6.15812 58.6293 5.87398 58.6293 5.54247C58.6293 5.21096 58.724 4.87946 58.9134 4.64267C59.1028 4.40588 59.387 4.2638 59.7185 4.2638C60.05 4.2638 60.3341 4.40588 60.4762 4.64267C60.6183 4.87946 60.713 5.11625 60.713 5.4004ZM60.1921 5.25832L60.0974 4.87946C60.0026 4.73738 59.8606 4.64267 59.6711 4.64267C59.4817 4.64267 59.3396 4.69003 59.2449 4.8321C59.1502 4.92682 59.1028 5.06889 59.1028 5.25832H60.1921Z" fill="white"/>
</svg>
