<svg viewBox="0 0 69 21" fill="none" xmlns="http://www.w3.org/2000/svg">
<path d="M3.50338 19.5614V19.5612L3.49446 19.5615C2.30145 19.6041 1.26856 18.6209 1.22327 17.4199V17.3767V2.67782C1.26838 1.43148 2.25376 0.48877 3.50338 0.48877H66.2789C67.5286 0.48877 68.514 1.43153 68.559 2.67792V17.3722C68.5141 18.6127 67.4869 19.5614 66.2312 19.5614H3.50338Z" fill="black" stroke="white" stroke-width="0.5"/>
<path d="M25.272 5.72862C25.272 6.11053 25.1765 6.44469 24.9378 6.68338C24.6514 6.96981 24.3172 7.11303 23.8876 7.11303C23.458 7.11303 23.1238 6.96981 22.8374 6.68338C22.5509 6.39696 22.4077 6.06279 22.4077 5.63315C22.4077 5.2035 22.5509 4.86934 22.8374 4.58291C23.1238 4.29648 23.458 4.15327 23.8876 4.15327C24.0785 4.15327 24.2695 4.20101 24.4605 4.29648C24.6514 4.39196 24.7946 4.48743 24.8901 4.63065L24.6514 4.86934C24.4604 4.63065 24.2218 4.53517 23.8876 4.53517C23.6012 4.53517 23.3147 4.63065 23.1238 4.86934C22.8851 5.06029 22.7896 5.34672 22.7896 5.68089C22.7896 6.01505 22.8851 6.30148 23.1238 6.49243C23.3625 6.68338 23.6012 6.8266 23.8876 6.8266C24.2218 6.8266 24.4605 6.73112 24.6991 6.49243C24.8424 6.34922 24.9378 6.15827 24.9378 5.91958H23.8876V5.53767H25.272V5.72862ZM27.4202 4.53517H26.1313V5.44219H27.3247V5.77636H26.1313V6.68338H27.4202V7.06529H25.7971V4.20101H27.4679L27.4202 4.53517ZM28.9478 7.01755H28.5659V4.53517H27.7544V4.20101H29.7116V4.53517H28.9001V7.01755H28.9478ZM31.1438 7.01755V4.20101H31.5257V7.01755H31.1438ZM33.101 7.01755H32.7191V4.53517H31.9076V4.20101H33.8171V4.53517H33.0056L33.101 7.01755ZM37.5884 6.63565C37.302 6.92207 36.9678 7.06529 36.5382 7.06529C36.1085 7.06529 35.7744 6.92207 35.4879 6.63565C35.2015 6.34922 35.0583 6.01505 35.0583 5.58541C35.0583 5.15577 35.2015 4.8216 35.4879 4.53517C35.7744 4.24874 36.1085 4.10553 36.5382 4.10553C36.9678 4.10553 37.302 4.24874 37.5884 4.53517C37.8748 4.8216 38.0181 5.15577 38.0181 5.58541C38.0181 6.01505 37.8748 6.39696 37.5884 6.63565ZM35.7744 6.44469C35.9653 6.63565 36.2517 6.77886 36.5382 6.77886C36.8246 6.77886 37.111 6.68338 37.302 6.44469C37.4929 6.25374 37.6362 5.96731 37.6362 5.63315C37.6362 5.29898 37.5407 5.01255 37.302 4.8216C37.111 4.63065 36.8246 4.48743 36.5382 4.48743C36.2517 4.48743 35.9653 4.58291 35.7744 4.8216C35.5834 5.01255 35.4402 5.29898 35.4402 5.63315C35.4402 5.96731 35.5357 6.25374 35.7744 6.44469ZM38.4954 7.01755V4.20101H38.9251L40.3095 6.39696V4.20101H40.6914V7.01755H40.3095L38.8296 4.72612V7.01755H38.4954Z" fill="white"/>
<path d="M25.3197 5.72886C25.3197 5.91981 25.272 6.11076 25.2243 6.25398C25.1765 6.39719 25.081 6.58814 24.9378 6.68362C24.7946 6.82683 24.6514 6.92231 24.4605 7.01779C24.2695 7.11326 24.0785 7.11326 23.8876 7.11326C23.6966 7.11326 23.458 7.06552 23.3147 7.01779C23.1238 6.92231 22.9806 6.82683 22.8374 6.68362C22.6941 6.54041 22.5987 6.39719 22.5032 6.20624C22.4077 6.01529 22.4077 5.82434 22.4077 5.63338C22.4077 5.44243 22.4555 5.20374 22.5032 5.06053C22.5509 4.91731 22.6941 4.72636 22.8374 4.58315C22.9806 4.43993 23.1238 4.34446 23.3147 4.24898C23.5057 4.1535 23.6966 4.1535 23.8876 4.1535C23.9831 4.1535 24.0785 4.1535 24.174 4.20124C24.2695 4.20124 24.365 4.24898 24.4605 4.29672C24.5559 4.34446 24.6514 4.39219 24.6991 4.43993C24.7946 4.48767 24.8424 4.53541 24.8901 4.63088V4.67862L24.6037 4.96505V4.91731C24.5082 4.82184 24.4127 4.72636 24.3172 4.67862C24.2218 4.63088 24.0785 4.58315 23.8876 4.58315C23.7444 4.58315 23.6012 4.63088 23.458 4.67862C23.3625 4.72636 23.2193 4.82184 23.1715 4.91731C23.076 5.01279 22.9806 5.10826 22.9328 5.25148C22.8851 5.39469 22.8374 5.53791 22.8374 5.68112C22.8374 5.82433 22.8374 6.01529 22.9328 6.11076C22.9806 6.25398 23.076 6.34945 23.1715 6.44493C23.267 6.54041 23.4102 6.63588 23.5057 6.68362C23.6012 6.73136 23.7444 6.7791 23.8876 6.7791C24.0308 6.7791 24.174 6.73136 24.3172 6.68362C24.4605 6.63588 24.5559 6.54041 24.6514 6.44493C24.6991 6.39719 24.7946 6.30172 24.7946 6.20624C24.8424 6.11076 24.8424 6.06303 24.8424 5.96755H23.7921V5.49017H25.272V5.72886H25.3197ZM25.1288 6.20624C25.1765 6.06303 25.2243 5.87207 25.2243 5.68112V5.53791H23.9353V5.82433H24.9856V5.87207C24.9856 5.96755 24.9856 6.11076 24.9378 6.20624C24.8901 6.30172 24.8424 6.39719 24.7469 6.49267C24.6037 6.63588 24.5082 6.68362 24.365 6.7791C24.2218 6.82683 24.0785 6.87457 23.9353 6.87457C23.7921 6.87457 23.6489 6.82683 23.5057 6.7791C23.3625 6.73136 23.267 6.63588 23.1238 6.54041C23.0283 6.44493 22.9328 6.34945 22.8851 6.20624C22.8374 6.06303 22.7896 5.91981 22.7896 5.72886C22.7896 5.53791 22.8374 5.39469 22.8851 5.25148C22.9328 5.10826 23.0283 5.01279 23.1238 4.91731C23.2193 4.82184 23.3147 4.72636 23.458 4.67862C23.6012 4.63088 23.7444 4.58315 23.8876 4.58315C24.0785 4.58315 24.2218 4.63088 24.3172 4.67862C24.4127 4.72636 24.5559 4.82184 24.6037 4.91731L24.7946 4.72636C24.7469 4.67862 24.6991 4.63088 24.6514 4.58315C24.6037 4.53541 24.5082 4.48767 24.4127 4.43993C24.3172 4.39219 24.2218 4.34446 24.1263 4.34446C24.0308 4.29672 23.9353 4.29672 23.8399 4.29672C23.6489 4.29672 23.458 4.34446 23.267 4.39219C23.1238 4.43993 22.9328 4.58315 22.8374 4.67862C22.6941 4.82184 22.5987 4.96505 22.5509 5.10826C22.5032 5.25148 22.4555 5.44243 22.4555 5.68112C22.4555 5.87207 22.5032 6.06303 22.5509 6.25398C22.5987 6.39719 22.7419 6.58814 22.8374 6.68362C22.9806 6.82683 23.1238 6.92231 23.267 6.97005C23.4102 7.01779 23.6012 7.06552 23.8399 7.06552C24.0308 7.06552 24.2218 7.01779 24.4127 6.97005C24.5559 6.92231 24.7469 6.7791 24.8424 6.68362C24.9856 6.49267 25.081 6.39719 25.1288 6.20624ZM27.4202 4.58315H26.179V5.39469H27.3725V5.82433H26.179V6.63588H27.4679V7.11326H25.7494C25.7494 6.1585 25.7494 5.156 25.7494 4.20124H27.4679L27.4202 4.58315ZM26.1313 4.48767H27.3725V4.24898H25.7971V6.97005H27.3247V6.68362H26.0358V5.72886H27.2293V5.49017H26.0358L26.1313 4.48767ZM28.9478 7.06552H28.5182V4.58315H27.7066V4.1535H29.7594V4.58315H28.9478V7.06552ZM28.6137 6.97005H28.9001V4.48767H29.7116V4.24898H27.8499V4.48767H28.6614V6.97005H28.6137ZM31.096 7.01779V4.1535H31.5734C31.5734 5.10826 31.5734 6.11076 31.5734 7.06552L31.096 7.01779ZM31.1915 4.24898V6.97005H31.4779V4.24898H31.1915ZM33.101 7.06552H32.6714V4.58315H31.8598V4.1535H33.8648V4.58315H33.0533V6.97005V7.06552H33.101ZM32.7669 6.97005H33.0056V4.48767H33.8171V4.24898H32.0031V4.48767H32.8146V6.97005H32.7669ZM37.5884 6.68362C37.4452 6.82683 37.302 6.92231 37.111 7.01779C36.9201 7.11326 36.7291 7.11326 36.5382 7.11326C36.3472 7.11326 36.1085 7.06552 35.9653 7.01779C35.7744 6.92231 35.6312 6.82683 35.4879 6.68362C35.3447 6.54041 35.2492 6.39719 35.1538 6.20624C35.0583 6.01529 35.0583 5.82434 35.0583 5.63338C35.0583 5.44243 35.106 5.20374 35.1538 5.06053C35.2492 4.86957 35.3447 4.72636 35.4879 4.58315C35.6312 4.43993 35.7744 4.34446 35.9653 4.24898C36.1563 4.1535 36.3472 4.1535 36.5382 4.1535C36.7291 4.1535 36.9678 4.20124 37.111 4.24898C37.302 4.34446 37.4452 4.43993 37.5884 4.58315C37.7316 4.72636 37.8271 4.86957 37.9226 5.06053C38.0181 5.25148 38.0181 5.44243 38.0181 5.63338C38.0181 5.82434 37.9703 6.06303 37.9226 6.20624C37.8748 6.39719 37.7316 6.54041 37.5884 6.68362ZM37.111 6.92231C37.2542 6.87457 37.4452 6.73136 37.5407 6.63588C37.6839 6.49267 37.7794 6.34945 37.8271 6.20624C37.8748 6.06303 37.9226 5.87207 37.9226 5.63338C37.9226 5.39469 37.8748 5.25148 37.8271 5.06053C37.7794 4.91731 37.6361 4.72636 37.5407 4.63088C37.3975 4.48767 37.2542 4.39219 37.111 4.34446C36.9678 4.29672 36.7769 4.24898 36.5382 4.24898C36.3472 4.24898 36.1563 4.29672 35.9653 4.34446C35.8221 4.39219 35.6312 4.53541 35.5357 4.63088C35.3925 4.7741 35.297 4.91731 35.2492 5.06053C35.1538 5.25148 35.106 5.39469 35.106 5.63338C35.106 5.82434 35.1538 6.01529 35.2015 6.20624C35.2492 6.34945 35.3925 6.54041 35.4879 6.63588C35.6312 6.7791 35.7744 6.87457 35.9176 6.92231C36.0608 6.97005 36.2517 7.01779 36.4904 7.01779C36.7291 7.01779 36.9201 7.01779 37.111 6.92231ZM35.8221 6.39719C35.9176 6.49267 36.0131 6.58814 36.1563 6.63588C36.2995 6.68362 36.395 6.68362 36.5382 6.68362C36.6814 6.68362 36.8246 6.63588 36.9678 6.58814C37.0633 6.54041 37.2065 6.44493 37.2542 6.34945C37.3497 6.25398 37.4452 6.1585 37.4929 6.01529C37.5407 5.87207 37.5884 5.72886 37.5884 5.58564C37.5884 5.44243 37.5407 5.25148 37.4929 5.156C37.4452 5.01279 37.3497 4.91731 37.2542 4.82184C37.1588 4.72636 37.0633 4.63088 36.9201 4.58315C36.8246 4.53541 36.6814 4.48767 36.5382 4.48767C36.395 4.48767 36.2517 4.53541 36.1085 4.58315C36.0131 4.63088 35.8698 4.72636 35.8221 4.82184C35.7266 4.91731 35.6312 5.06053 35.5834 5.156C35.5357 5.29922 35.4879 5.39469 35.4879 5.58564C35.4879 5.72886 35.5357 5.91981 35.5834 6.01529C35.6312 6.20624 35.7266 6.30172 35.8221 6.39719ZM36.1085 6.73136C35.9653 6.68362 35.8221 6.58814 35.7266 6.49267C35.6312 6.39719 35.5357 6.25398 35.4879 6.1585C35.4402 6.01529 35.3925 5.87207 35.3925 5.68112C35.3925 5.53791 35.4402 5.34695 35.4879 5.25148C35.5357 5.10826 35.6312 4.96505 35.7266 4.86957C35.8221 4.7741 35.9176 4.67862 36.0608 4.63088C36.204 4.58315 36.3472 4.53541 36.4904 4.53541C36.6337 4.53541 36.7769 4.58315 36.9201 4.63088C37.0633 4.67862 37.2065 4.7741 37.302 4.86957C37.3975 4.96505 37.4929 5.06053 37.5407 5.20374C37.5884 5.34695 37.6362 5.49017 37.6362 5.68112C37.6362 5.82433 37.5884 6.01529 37.5407 6.11076C37.4929 6.25398 37.3975 6.39719 37.302 6.49267C37.2065 6.58814 37.111 6.68362 36.9678 6.73136C36.8246 6.7791 36.6814 6.82683 36.5382 6.82683C36.395 6.7791 36.2517 6.7791 36.1085 6.73136ZM38.4477 7.01779V4.1535H38.9251L40.214 6.25398V4.1535H40.6914C40.6914 5.10826 40.6914 6.11076 40.6914 7.06552H40.2617L38.8773 4.86957V7.06552L38.4477 7.01779ZM38.5432 4.24898V6.97005H38.7819V4.58315L40.3095 7.01779H40.5959V4.24898H40.3572V6.58814L38.9251 4.24898H38.5432Z" fill="white"/>
<path d="M34.9628 11.1709C33.8171 11.1709 32.9578 12.0302 32.9578 13.1759C32.9578 14.3216 33.8648 15.1809 34.9628 15.1809C36.1085 15.1809 36.9678 14.3216 36.9678 13.1759C37.0155 11.9825 36.1085 11.1709 34.9628 11.1709ZM34.9628 14.3694C34.3422 14.3694 33.8171 13.8443 33.8171 13.1282C33.8171 12.4121 34.3422 11.887 34.9628 11.887C35.5834 11.887 36.1085 12.3644 36.1085 13.1282C36.1085 13.8443 35.5834 14.3694 34.9628 14.3694ZM30.6186 11.1709C29.4729 11.1709 28.6136 12.0302 28.6136 13.1759C28.6136 14.3216 29.5206 15.1809 30.6186 15.1809C31.7643 15.1809 32.6236 14.3216 32.6236 13.1759C32.6236 11.9825 31.7166 11.1709 30.6186 11.1709ZM30.6186 14.3694C29.998 14.3694 29.4729 13.8443 29.4729 13.1282C29.4729 12.4121 29.998 11.887 30.6186 11.887C31.2392 11.887 31.7643 12.3644 31.7643 13.1282C31.7166 13.8443 31.2392 14.3694 30.6186 14.3694ZM25.3674 11.7915V12.6508H27.3724C27.3247 13.1282 27.1337 13.5101 26.895 13.7488C26.6086 14.0352 26.1312 14.3694 25.3674 14.3694C24.1262 14.3216 23.1715 13.3191 23.1715 12.0779C23.1715 10.8368 24.174 9.83426 25.3674 9.83426C26.0358 9.83426 26.5609 10.1207 26.9428 10.4549L27.5634 9.83426C27.0383 9.35688 26.3699 8.97498 25.4629 8.97498C23.7921 8.97498 22.3122 10.4071 22.3122 12.0779C22.3122 13.7488 23.7443 15.1809 25.4629 15.1809C26.4177 15.1809 27.0383 14.8945 27.6111 14.2739C28.184 13.701 28.3749 12.8895 28.3749 12.3166C28.3749 12.1257 28.3749 11.9347 28.3272 11.7915H25.3674ZM46.7541 12.4599C46.5631 11.9825 46.0857 11.1709 45.0355 11.1709C43.9853 11.1709 43.1737 11.9825 43.1737 13.1759C43.1737 14.3216 44.033 15.1809 45.131 15.1809C46.038 15.1809 46.6109 14.6081 46.7541 14.2739L46.0857 13.7965C45.8471 14.1307 45.5606 14.3694 45.0832 14.3694C44.6059 14.3694 44.3194 14.1784 44.0807 13.7488L46.7541 12.6031V12.4599ZM44.033 13.1282C44.033 12.3644 44.6536 11.9347 45.0832 11.9347C45.4174 11.9347 45.7516 12.1257 45.8471 12.3644L44.033 13.1282ZM41.7893 15.0377H42.6963V9.16593H41.7893V15.0377ZM40.4049 11.6006C40.1662 11.3619 39.7843 11.1232 39.3069 11.1232C38.3044 11.1232 37.3974 12.0302 37.3974 13.1282C37.3974 14.2262 38.3044 15.0854 39.3069 15.0854C39.7843 15.0854 40.1662 14.8468 40.3572 14.6081H40.4049V14.8945C40.4049 15.6583 39.9753 16.0879 39.3069 16.0879C38.7818 16.0879 38.3999 15.706 38.3044 15.3719L37.5884 15.7538C37.8271 16.2789 38.3999 16.9472 39.3547 16.9472C40.4049 16.9472 41.2165 16.3266 41.2165 14.8945V11.3141H40.3572V11.6006H40.4049ZM39.3547 14.3694C38.7341 14.3694 38.209 13.8443 38.209 13.1282C38.209 12.4121 38.7341 11.887 39.3547 11.887C39.9753 11.887 40.4527 12.4121 40.4527 13.1282C40.4527 13.8443 39.9753 14.3694 39.3547 14.3694ZM50.8595 9.16593H48.7591V15.0377H49.6661V12.8418H50.9073C51.9098 12.8418 52.8168 12.1257 52.8168 11.0277C52.8168 9.92974 51.8143 9.16593 50.8595 9.16593ZM50.9073 11.9825H49.6184V9.97747H50.9073C51.5756 9.97747 51.9575 10.5503 51.9575 10.98C51.862 11.4574 51.4801 11.9825 50.9073 11.9825ZM56.3017 11.1232C55.6334 11.1232 54.965 11.4096 54.7263 12.0302L55.5379 12.3644C55.7288 12.0302 56.0153 11.9347 56.3494 11.9347C56.8268 11.9347 57.2564 12.2212 57.3042 12.6985V12.7463C57.161 12.6508 56.7791 12.5076 56.3972 12.5076C55.5379 12.5076 54.7263 12.985 54.7263 13.8443C54.7263 14.6558 55.4424 15.1809 56.2062 15.1809C56.8268 15.1809 57.1132 14.8945 57.3519 14.6081H57.3997V15.0854H58.2589V12.8418C58.068 11.7438 57.2564 11.1232 56.3017 11.1232ZM56.2062 14.3694C55.9198 14.3694 55.4901 14.2262 55.4901 13.8443C55.4901 13.3669 56.0153 13.2237 56.4449 13.2237C56.8268 13.2237 57.0178 13.3191 57.2564 13.4146C57.161 13.9875 56.6836 14.3694 56.2062 14.3694ZM61.1232 11.2664L60.1207 13.7965H60.073L59.0227 11.2664H58.068L59.5956 14.8468L58.6886 16.804H59.5956L61.9825 11.2664H61.1232ZM53.2465 15.0377H54.1535V9.16593H53.2465V15.0377Z" fill="white"/>
<path d="M7.84757 4.43988C7.70435 4.58309 7.65662 4.82178 7.65662 5.10821V15.5151C7.65662 15.8015 7.75209 16.0402 7.89531 16.1834L7.94304 16.2312L13.7671 10.4071V10.3117L7.84757 4.43988Z" fill="white"/>
<path d="M15.963 12.3643L14.0535 10.4548V10.3116L15.963 8.40204L16.0108 8.44978L18.3022 9.78644C18.9705 10.1683 18.9705 10.7889 18.3022 11.1708L15.963 12.3643Z" fill="white"/>
<path d="M15.8675 12.4598L13.8625 10.5026L7.99072 16.3743C8.22941 16.613 8.56358 16.613 8.99322 16.4221L15.8675 12.4598Z" fill="white"/>
<path d="M15.8675 8.25895L8.99322 4.34443C8.56358 4.10574 8.22941 4.15347 7.99072 4.39216L13.8625 10.2162L15.8675 8.25895Z" fill="white"/>
<path d="M15.6766 12.2689L8.85009 16.0879C8.46819 16.3266 8.13402 16.2789 7.89533 16.0879L7.8476 16.1356L7.89533 16.1834C8.13402 16.3743 8.46819 16.4221 8.85009 16.1834L15.6766 12.2689Z" fill="#FEFEFE" fill-opacity="0.2"/>
<path d="M7.84757 16.0878C7.70435 15.9446 7.65662 15.7059 7.65662 15.4195V15.4672C7.65662 15.7537 7.75209 15.9924 7.84757 16.0878ZM18.0158 10.9321L15.6766 12.2688L15.7243 12.3165L18.0158 10.9321C18.3499 10.7889 18.4932 10.5502 18.4932 10.3115C18.4932 10.5502 18.3022 10.7412 18.0158 10.9321Z" fill="#FEFEFE" fill-opacity="0.2"/>
</svg>
