<svg width="66" height="22" viewBox="0 0 66 22" fill="none" xmlns="http://www.w3.org/2000/svg">
<g clip-path="url(#clip0)">
<path d="M43.6817 7.38894L40.1729 21.6186H45.8539L49.5059 6.79306L43.6817 7.38894Z" fill="white"/>
<path d="M62.4434 6.76923C60.7486 6.60238 58.0991 7.12676 56.7862 8.12784C56.7624 7.65113 56.6669 7.17443 56.5475 6.72156L51.511 7.34128C51.702 8.74756 51.511 10.2969 51.0098 12.3944L48.7421 21.6186H54.4231L56.7385 12.1798C57.3114 11.3694 58.2184 10.8212 58.9823 10.8212C59.9371 10.8212 60.1519 11.5125 59.8654 12.6566L57.6694 21.6186H63.3504L65.7852 11.87C66.4296 9.2481 65.5703 7.05525 62.4434 6.76923Z" fill="white"/>
<path d="M50.4369 2.7649C50.4369 1.23944 49.1002 0 47.4055 0C45.6868 0 44.2308 1.23944 44.2308 2.7649C44.2308 4.29036 45.6391 5.52979 47.31 5.52979C49.0525 5.55363 50.4369 4.29036 50.4369 2.7649Z" fill="#FFCC00"/>
<path d="M36.8073 6.93607L35.017 11.0834C34.3487 12.6327 33.7758 14.1105 33.2507 15.5645L33.1791 6.93607H28.047L23.7744 15.636L24.2279 6.74539L18.5707 7.46045L19.7165 21.6425H24.7291C24.7291 21.6425 28.5244 13.9913 28.8586 13.0856L28.9064 21.6186H34.0384L42.5121 6.93607H36.8073Z" fill="white"/>
<path d="M12.46 6.57856C11.3382 6.55472 10.2163 6.81691 9.21374 7.34128C9.78662 5.5298 10.1685 3.67065 10.3595 1.78766C10.3834 1.35862 10.4072 0.929585 10.3834 0.500549L4.41591 1.23944C4.48752 2.19286 4.3443 3.69448 3.58047 6.93608L0.716094 18.8061C0.572875 19.3781 0.262568 20.4507 0 20.8559C2.33924 21.6663 4.79783 22.0477 7.25642 22C9.11826 22 10.5982 21.6663 12.102 20.7844C14.6799 19.2589 16.2792 16.5417 16.9476 13.9198C18.1649 8.98592 16.1599 6.57856 12.46 6.57856ZM10.9562 14.182C10.3118 16.8992 9.45244 18.1148 8.02025 18.1148C7.54286 18.1387 7.08933 18.0195 6.68354 17.7812L8.25895 11.2741C8.71248 10.8212 9.30922 10.5829 9.92984 10.5591C11.1949 10.5591 11.6485 11.2741 10.9562 14.182Z" fill="white"/>
<path d="M54.4948 1.71612C54.3754 1.64462 54.2561 1.62078 54.1129 1.62078C53.9935 1.62078 53.8503 1.66845 53.7071 1.76379C53.5639 1.85913 53.3729 2.02598 53.1819 2.312L52.4897 5.55361H51.2007L51.893 2.28817C51.9646 1.97831 51.9884 1.71612 51.9884 1.5016C51.9884 1.28709 51.9646 1.0964 51.9168 0.929557L53.1103 0.45285C53.1581 0.548192 53.1819 0.667368 53.2058 0.81038C53.2297 0.953392 53.2297 1.12024 53.2297 1.26325C53.4445 1.04873 53.6832 0.858051 53.898 0.715039C54.1367 0.572027 54.3754 0.500521 54.6141 0.500521C54.7096 0.500521 54.7812 0.500521 54.829 0.524356C54.8767 0.548192 54.9722 0.572027 55.0438 0.619698L54.4948 1.71612Z" fill="#FFCC00"/>
<path d="M58.7674 4.24267C58.7436 4.40951 58.7197 4.6002 58.7436 4.79088C58.7674 4.98156 58.7913 5.14841 58.8629 5.24375L57.741 5.69662C57.6933 5.60128 57.6217 5.50594 57.5978 5.38676C57.5501 5.26758 57.5262 5.14841 57.5262 5.02923C57.3352 5.19608 57.1204 5.33909 56.8817 5.45827C56.643 5.57744 56.3804 5.64895 56.094 5.64895C55.7121 5.64895 55.4018 5.55361 55.187 5.38676C54.9721 5.19608 54.8766 4.95773 54.8766 4.64787C54.8766 4.55253 54.8766 4.45718 54.9005 4.31417C54.9244 4.195 54.9483 4.02815 54.9721 3.8613L55.6405 0.691204L56.9772 0.45285L56.3088 3.62295C56.285 3.74212 56.2611 3.88514 56.2372 4.00431C56.2134 4.12349 56.2134 4.21883 56.2134 4.29034C56.2134 4.40951 56.2372 4.48102 56.3088 4.55253C56.3804 4.62403 56.4521 4.64787 56.5237 4.64787C56.6191 4.64787 56.7146 4.62403 56.834 4.57636C56.9295 4.52869 57.0488 4.45718 57.1443 4.38568C57.2398 4.31417 57.3352 4.24267 57.4068 4.14732C57.4785 4.05198 57.5501 3.98048 57.5978 3.90897L58.2662 0.715039L59.579 0.45285L58.7674 4.24267Z" fill="#FFCC00"/>
</g>
<defs>
<clipPath id="clip0">
<rect width="66" height="22" fill="white"/>
</clipPath>
</defs>
</svg>
